<svg height="511pt" viewBox="0 -16 511.99978 511" width="511pt"  fill="#00ccff" xmlns="http://www.w3.org/2000/svg"><path d="m335.964844 60.492188c5.519531 0 10-4.476563 10-9.996094 0-5.519532-4.480469-10-10-10-5.519532 0-9.996094 4.480468-9.996094 10 0 5.519531 4.476562 9.996094 9.996094 9.996094zm0 0"/><path d="m506.78125 310.914062c-11.125-20.035156-36.5625-27.128906-56.5-15.503906l-104.851562 58.558594c-3.113282-18.972656-19.621094-33.5-39.460938-33.5h-36.148438c-8.425781 0-16.703124-4.257812-23.300781-11.980469-19.59375-22.960937-49.109375-32.660156-78.957031-25.941406-15.632812 3.527344-30.289062 12.191406-41.265625 24.402344-5.445313 6.058593-12.546875 10.285156-20.308594 12.257812v-8.738281c0-5.519531-4.476562-10-10-10h-85.988281c-5.523438 0-10 4.480469-10 10v159.984375c0 5.519531 4.476562 10 10 10h85.992188c5.519531 0 9.996093-4.480469 9.996093-10v-7.460937s209.703125 17.460937 209.980469 17.460937c1.953125 0 3.875-.574219 5.515625-1.660156l75.605469-49.984375c4.605468-3.046875 5.871094-9.25 2.824218-13.855469-3.042968-4.605469-9.246093-5.871094-13.855468-2.828125l-72.714844 48.078125-207.355469-17.277344v-103.300781c13.476563-2.257812 25.9375-9.015625 35.183594-19.3125 8.230469-9.148438 19.164063-15.636719 30.789063-18.257812 22.46875-5.058594 44.65625 2.199218 59.351562 19.417968 10.460938 12.246094 24.136719 18.992188 38.511719 18.992188h36.144531c11.027344 0 20 8.972656 20 20 0 10.972656-8.851562 19.996094-20 19.996094h-89.992188c-5.519531 0-9.996093 4.480468-9.996093 10 0 5.523437 4.476562 10 9.996093 10h89.992188c14.957031 0 28.441406-8.246094 35.332031-21.277344 0 0 118.945313-66.433594 119.003907-66.46875 10.179687-5.96875 23.261718-2.417969 28.996093 7.910156 5.289063 9.515625 2.519531 21.324219-6.4375 27.496094l-30.097656 19.898437c-4.605469 3.046875-5.871094 9.25-2.828125 13.855469 3.050781 4.617188 9.257812 5.867188 13.855469 2.828125 0 0 30.261719-20.007813 30.304687-20.039063 17.578125-12.023437 23.027344-35.136718 12.683594-53.75zm-420.789062 149.539063h-65.996094v-139.984375h65.996094zm0 0"/><path d="m335.964844.5c-82.699219 0-149.984375 67.28125-149.984375 149.984375s67.285156 149.984375 149.984375 149.984375c82.703125 0 149.988281-67.28125 149.988281-149.984375s-67.285156-149.984375-149.988281-149.984375zm0 279.972656c-71.675782 0-129.984375-58.3125-129.984375-129.988281s58.308593-129.988281 129.984375-129.988281c71.675781 0 129.988281 58.3125 129.988281 129.988281s-58.3125 129.988281-129.988281 129.988281zm0 0"/><path d="m379.097656 49.300781c-5.074218-2.175781-10.957031.183594-13.128906 5.261719-2.171875 5.074219.183594 10.953125 5.261719 13.125 33.246093 14.226562 54.726562 46.726562 54.726562 82.796875 0 49.621094-40.371093 89.992187-89.992187 89.992187s-89.988282-40.371093-89.988282-89.992187c0-36.070313 21.480469-68.570313 54.726563-82.796875 5.078125-2.171875 7.433594-8.050781 5.257813-13.128906-2.171876-5.078125-8.050782-7.429688-13.125-5.257813-40.613282 17.378907-66.859376 57.097657-66.859376 101.183594 0 60.648437 49.34375 109.988281 109.988282 109.988281 60.648437 0 109.992187-49.339844 109.992187-109.988281 0-44.085937-26.246093-83.804687-66.859375-101.183594zm0 0"/><path d="m336.964844 159.484375c5.515625 0 10 4.484375 10 10 0 5.511719-4.484375 9.996094-10 9.996094-4.269532 0-8.882813-2.683594-12.980469-7.5625-3.554687-4.226563-9.863281-4.773438-14.089844-1.21875-4.226562 3.554687-4.773437 9.859375-1.21875 14.085937 5.34375 6.359375 11.628907 10.792969 18.292969 13.023438v11.671875c0 5.519531 4.476562 9.996093 9.996094 9.996093 5.523437 0 10-4.476562 10-9.996093v-11.71875c11.636718-4.128907 20-15.242188 20-28.277344 0-16.542969-13.457032-30-30-30-5.511719 0-9.996094-4.484375-9.996094-9.996094 0-5.515625 4.484375-10 9.996094-10 3.542968 0 7.28125 1.808594 10.816406 5.226563 3.96875 3.839844 10.296875 3.734375 14.140625-.230469 3.835937-3.96875 3.734375-10.300781-.234375-14.140625-5.074219-4.910156-10.152344-7.6875-14.722656-9.203125v-11.648437c0-5.523438-4.476563-10-10-10-5.519532 0-9.996094 4.476562-9.996094 10v11.71875c-11.640625 4.128906-20 15.242187-20 28.277343 0 16.539063 13.457031 29.996094 29.996094 29.996094zm0 0"/><path d="m434.957031 398.460938c0-5.519532-4.480469-10-10-10s-10 4.480468-10 10c0 5.519531 4.480469 10 10 10s10-4.480469 10-10zm0 0"/></svg>